<mxfile host="app.diagrams.net" agent="Mozilla/5.0 (Windows NT 10.0; Win64; x64) AppleWebKit/537.36 (KHTML, like Gecko) Chrome/126.0.0.0 Safari/537.36" version="24.7.4">
  <diagram id="a7sJ38uS9Cy5WKemIrwp" name="Page-1">
    <mxGraphModel dx="1444" dy="811" grid="0" gridSize="10" guides="1" tooltips="1" connect="1" arrows="1" fold="1" page="1" pageScale="1" pageWidth="850" pageHeight="1100" math="0" shadow="0">
      <root>
        <mxCell id="0" />
        <mxCell id="1" parent="0" />
        <mxCell id="T8XyQ3JomlZQ3bvedapc-2" value="" style="edgeStyle=orthogonalEdgeStyle;rounded=0;orthogonalLoop=1;jettySize=auto;html=1;" edge="1" parent="1" source="XtyGe26G-kog1QyAXvnk-3" target="XtyGe26G-kog1QyAXvnk-4">
          <mxGeometry relative="1" as="geometry" />
        </mxCell>
        <mxCell id="XtyGe26G-kog1QyAXvnk-3" value="Start" style="strokeWidth=1;html=1;shape=mxgraph.flowchart.terminator;whiteSpace=wrap;" parent="1" vertex="1">
          <mxGeometry x="60" y="50" width="80" height="40" as="geometry" />
        </mxCell>
        <mxCell id="T8XyQ3JomlZQ3bvedapc-6" value="" style="edgeStyle=orthogonalEdgeStyle;rounded=0;orthogonalLoop=1;jettySize=auto;html=1;" edge="1" parent="1" source="XtyGe26G-kog1QyAXvnk-4" target="XtyGe26G-kog1QyAXvnk-5">
          <mxGeometry relative="1" as="geometry" />
        </mxCell>
        <mxCell id="XtyGe26G-kog1QyAXvnk-4" value="i = 0&lt;div&gt;&lt;i&gt;max_shift = random (0.1*total duration, 0.2 * total duration)&lt;/i&gt;&lt;/div&gt;" style="rounded=0;whiteSpace=wrap;html=1;" parent="1" vertex="1">
          <mxGeometry x="200" y="30" width="140" height="80" as="geometry" />
        </mxCell>
        <mxCell id="T8XyQ3JomlZQ3bvedapc-7" value="" style="edgeStyle=orthogonalEdgeStyle;rounded=0;orthogonalLoop=1;jettySize=auto;html=1;" edge="1" parent="1" source="XtyGe26G-kog1QyAXvnk-5" target="XtyGe26G-kog1QyAXvnk-6">
          <mxGeometry relative="1" as="geometry" />
        </mxCell>
        <mxCell id="XtyGe26G-kog1QyAXvnk-5" value="i &amp;lt; jumlah traces" style="rhombus;whiteSpace=wrap;html=1;" parent="1" vertex="1">
          <mxGeometry x="400" y="30" width="80" height="80" as="geometry" />
        </mxCell>
        <mxCell id="T8XyQ3JomlZQ3bvedapc-8" value="" style="edgeStyle=orthogonalEdgeStyle;rounded=0;orthogonalLoop=1;jettySize=auto;html=1;" edge="1" parent="1" source="XtyGe26G-kog1QyAXvnk-6" target="XtyGe26G-kog1QyAXvnk-7">
          <mxGeometry relative="1" as="geometry" />
        </mxCell>
        <mxCell id="XtyGe26G-kog1QyAXvnk-6" value="shift_amount = random(-max_shift, max_shift)" style="rounded=0;whiteSpace=wrap;html=1;" parent="1" vertex="1">
          <mxGeometry x="540" y="45" width="140" height="50" as="geometry" />
        </mxCell>
        <mxCell id="T8XyQ3JomlZQ3bvedapc-9" value="" style="edgeStyle=orthogonalEdgeStyle;rounded=0;orthogonalLoop=1;jettySize=auto;html=1;" edge="1" parent="1" source="XtyGe26G-kog1QyAXvnk-7" target="XtyGe26G-kog1QyAXvnk-11">
          <mxGeometry relative="1" as="geometry" />
        </mxCell>
        <mxCell id="XtyGe26G-kog1QyAXvnk-7" value="for stream[i]&lt;div&gt;shifted start time = stream[i].starttime * shift_amount&lt;/div&gt;&lt;div&gt;shifted end time = stream[i].endtime * shift_amount&lt;/div&gt;" style="rounded=0;whiteSpace=wrap;html=1;fontStyle=2" parent="1" vertex="1">
          <mxGeometry x="500" y="160" width="180" height="120" as="geometry" />
        </mxCell>
        <mxCell id="T8XyQ3JomlZQ3bvedapc-11" value="" style="edgeStyle=orthogonalEdgeStyle;rounded=0;orthogonalLoop=1;jettySize=auto;html=1;" edge="1" parent="1" source="XtyGe26G-kog1QyAXvnk-10" target="XtyGe26G-kog1QyAXvnk-16">
          <mxGeometry relative="1" as="geometry" />
        </mxCell>
        <mxCell id="T8XyQ3JomlZQ3bvedapc-13" style="edgeStyle=orthogonalEdgeStyle;rounded=0;orthogonalLoop=1;jettySize=auto;html=1;entryX=0.5;entryY=1;entryDx=0;entryDy=0;" edge="1" parent="1" source="XtyGe26G-kog1QyAXvnk-10" target="XtyGe26G-kog1QyAXvnk-5">
          <mxGeometry relative="1" as="geometry">
            <Array as="points">
              <mxPoint x="230" y="150" />
              <mxPoint x="440" y="150" />
            </Array>
          </mxGeometry>
        </mxCell>
        <mxCell id="XtyGe26G-kog1QyAXvnk-10" value="i &amp;lt; jumlah &lt;i&gt;traces&lt;/i&gt;" style="rhombus;whiteSpace=wrap;html=1;" parent="1" vertex="1">
          <mxGeometry x="190" y="180" width="80" height="80" as="geometry" />
        </mxCell>
        <mxCell id="T8XyQ3JomlZQ3bvedapc-10" value="" style="edgeStyle=orthogonalEdgeStyle;rounded=0;orthogonalLoop=1;jettySize=auto;html=1;" edge="1" parent="1" source="XtyGe26G-kog1QyAXvnk-11" target="XtyGe26G-kog1QyAXvnk-10">
          <mxGeometry relative="1" as="geometry" />
        </mxCell>
        <mxCell id="XtyGe26G-kog1QyAXvnk-11" value="i = i+1" style="rounded=0;whiteSpace=wrap;html=1;" parent="1" vertex="1">
          <mxGeometry x="310" y="195" width="140" height="50" as="geometry" />
        </mxCell>
        <mxCell id="XtyGe26G-kog1QyAXvnk-16" value="End" style="strokeWidth=1;html=1;shape=mxgraph.flowchart.terminator;whiteSpace=wrap;fontStyle=2" parent="1" vertex="1">
          <mxGeometry x="60" y="200" width="80" height="40" as="geometry" />
        </mxCell>
        <mxCell id="XtyGe26G-kog1QyAXvnk-20" value="Ya" style="text;html=1;align=center;verticalAlign=middle;whiteSpace=wrap;rounded=0;" parent="1" vertex="1">
          <mxGeometry x="180" y="150" width="60" height="30" as="geometry" />
        </mxCell>
        <mxCell id="XtyGe26G-kog1QyAXvnk-21" value="Tidak" style="text;html=1;align=center;verticalAlign=middle;whiteSpace=wrap;rounded=0;" parent="1" vertex="1">
          <mxGeometry x="140" y="220" width="60" height="30" as="geometry" />
        </mxCell>
        <mxCell id="XtyGe26G-kog1QyAXvnk-23" value="Tidak" style="text;html=1;align=center;verticalAlign=middle;whiteSpace=wrap;rounded=0;" parent="1" vertex="1">
          <mxGeometry x="350" y="100" width="60" height="30" as="geometry" />
        </mxCell>
        <mxCell id="XtyGe26G-kog1QyAXvnk-24" value="Ya" style="text;html=1;align=center;verticalAlign=middle;whiteSpace=wrap;rounded=0;" parent="1" vertex="1">
          <mxGeometry x="470" y="45" width="60" height="30" as="geometry" />
        </mxCell>
        <mxCell id="T8XyQ3JomlZQ3bvedapc-5" value="" style="shape=image;verticalLabelPosition=bottom;labelBackgroundColor=default;verticalAlign=top;aspect=fixed;imageAspect=0;image=data:image/png,iVBORw0KGgoAAAANSUhEUgAAAQ8AAAIRCAYAAABUGzhIAAAAAXNSR0IArs4c6QAAAARnQU1BAACxjwv8YQUAAAAJcEhZcwAADsMAAA7DAcdvqGQAAG/DSURBVHhe7b0PfBXFuf//5FgV8Q8oIkFjNaL2+gdt0VaCUksq2lJrNSm0JMq1t+2vvaWllWLLbfijkNxekeK3tlylopb2l8CFm1irbRG9kVttglpiKVKhRSMSJV8RAVHQGD3f+czOnLNnzuz5lz2bPSfPm9dD9syzO+c5s7vPzs48M0NRC9u3b1dbyfT09EQPHjyoPiXT29sr9fjrBfTIJxVsgwPb4MA2OITJhggxDMPkADuPImHfvn30zjvvqE8Mk3/YeRQJmzZtou7ubvWJYfIPOw+GYXKiBI0jajvGiy++SGeccYb6lMgHH3wg5UMf+pBKSSQajdL7779Phx12GJWUlKjURHp7eykSiUjxgm1wyNSGP/7xj1ReXk6nnnqq0vK50LANDn7bUILWVZUWo7OzU16I/Qnb4JCpDTbn4Rd8LhzYBoeYDcIbJcFdUg6FZMPevXujhw4dktuagVgONtgGB79t8K6bMAXF0KFDadCgQeoTw+Qfdh4Mw+QEOw+GYXKCnUeRwEFiTNCw8ygSOEiMCZoI+n2zkWjU6dm16SDoZ9bY9BCAfGy6TIRtcMS0wcyLz4UjbIMjftvAcR4pCIsNCMjRF4YNBPw8+eSTdNppp1FZWZlK9Q8+Fw5sg4O2oQR9viotxgsvvECjRo1SnxLRXueII45QKcn09PTIKDevKDXoEeUG8YJtcIANZ511Fr3++us0bNiwBCfituHxxx+XTgYOxE0xlQPbEC4bInrHTEWHtdp0EA2Ms+khAPnYdJnIQLIBVc3TTz+dTjrpJHrjjTcSdG4bLr74Yjr55JMT9Bo+Fw5sg4NfNtjdDxMK8BS48cYb6dvf/jbdfffdNHz4cFkDscFBYkzQsPMIKXAcV199NVVVVdHNN99M3/jGN9I6EIYJEnYeIUQ7jokTJ9IPfvADlUpJDgTVT4bpL/jqCxlux4Eah4nbgezfv1+lcpAYEzzsPEJEOseh0Q4EvS/6FYaDxJig4TiPFARpAxzHddddR5/5zGcSXlVSsWzZMvrmN79JL7/8Mv3tb3+TXbUc55E/2AYHbYOvM4kddvjh1CtuAvQ1oysHXT6HH34Yvf9BhCLR96hXBbj1ytmKPkRHHHkY9b7nRLWZvPjSy/SRM0+n9/RBLlLZAHSEnLbBhmND/8/aBD3y+OhHP0o33HBDyhqHDe1A/vCHP9BHPvKRBOdRSOXANhSgDSLDJHKbcGRXtHEywRElyuTG6Kamqmh9u9pNgOM/iLZG64Vul0oz2f7fM6NVTXattw0OogB8nfTEhl82iJMZ/djHPhZdtGiRSs0e8Qojy3rjxo0qxaGQyoFtKDwbvN1L1pRSzeqo9FwH18+n6/7/Lunpoqtr6IKpzVQ3Vu2mEHUStTVwESdJ1jimTp2adY3DjW4Dueiii7gblwkMH51HnMOiB9WWQ/fKamrYILeoaUoJDR48mEpubZU6AD2qUY40ULtKd3COKVmYmFrowHGgjSOXVxUbHAfCBE1enIeNOSfCSUyn2s/vJ1E1ougVB2iO1HRTZ/lSp5YipG3BHGoVjmbUO0uErlM4julES4RuboXcuxiA40CvChpH/XAcGtOBeL3XMowfBOY8Joi38l0LW+hH5xxHh0UiFL30WqqXmlKqKGulalXzGDdPJtILg2ZSS804ql3jfC4WtOMwA8D8wu1AEPvBDoTJF4E5j8fFNTxybhX9+/Nv0vsffEAlr/6DOqSmnRpmEi2N1TyItpQ6NY+qpl0U3VlNzTObRP2k8HE7Dj9rHCbuOJC9e/eqVIbxl7w4j5Jor9qKUy9ew0unLqXGh4Y4bR4zHlSacvGvlkaqmkerqI+sfESpQFkNLb2umUYWeJtHUI5Dox0IRtpyGwiTD0rQ7aK2Y+zevVtWe22gNwV9xUceeaRKSQS63miEBh0mahIldt+EfQ4//HDZJ+3F7gM9NPxY+7wEGdkg9kF/N/q0bbz77rtS59UnDvpcDsoG/E6MjsUgt3y8qqRCx4E888wzdPzxx6vUOEGWQxjOBdvgow3iVSEJ7s926KsNehGmysrKPsVx9BVRA5FxIOKkq5Q4A+VcsA3+2xBYm8dABDWOSy+91PdelWzhblwmH7DzyBPCe9OECRPo2muv7VfHoWEHwvgNO488AMdxzTXXUHV1dSgch4YdCOMn7Dx8Bo4DvSpXXnll4I2jmWA6EI4DYXKFnYePaMcRVHdsrrgdiHtCIYbJBl+H5INodGAOf9avKv3dOJoNuhv3tddekxMoe8HXgwPb4KBtiGBnU/AFtnQIjAM2HQTHglR5AORj02kpJBuw3yWXXEJXXXUV3Ty+h6pXZhsPi8F/5oDAbEhz/IYGq026BqKXdfD6vZmWg01wLEiVByim68EmxWgDvFES3J/tkKkNV155ZRZxHM68J+75TfoO8qyPtqlPSbTXe86NAoQD8YwDAXw9OLANDtoG77oJkxZU/VDbuOKKK+KvKh5PeaRj/5ISZ5Rw4vwm8ZpDfPoCQVcTVcuw/HZqEPoGTE0g8kD+7QudbXOqAs/pDbbfGxt8aNrHvTBMLrDzyBHhneUqbQmOwwN5Qz9aKd85o9FmqsllmtE1HVSOqQmibTSmZiS1TnS26+e1ul5X7NMb0FGvUMvmcmfw4c5GogdakwYasgNhsoWdRw7AcaBxdNq0aRk1jpZObaboxNbk2kA2TK6mypjTqadKWXMpp/LJMkFhn96ASu6iqusqhVZQVk5jZGIy7ECYbGDnkSVwHOiOzWaWc8nYOlUjqKRWcWPHXk0sdHSqekFXJ7U4WxmSPL3BY8OUKkPYgTCZws4jC7Tj6FscRwXViRvbnNNVUzq+mki8lshaypIOqlLpmZE8vcEJfxaO6KAz7VKmZOtAeLGpgUkJWl7Vdoy+LOOvu3nSLfOPvmaIF2GzQb+qIHLU/zgONJjeS+Wr64RrCQ86DmTjxo104YUXqtQ4hw4dol/96lc0ffp0+stf/kLnn3++0sQp1uvBZCDakJdFn/DUQ7XZC+iB1z7Qaxts+6Q7HvhpAwodg9wwVsX/kHM4jpGivtBIu1bXOO0SIUI7kFdffVXOB4JygdP49a9/TYsWLaKuri667LLL6IknnvCsgWRyLlLpwUsvvUSnn366+pR43nA8BOfJBnTAr+vBtk8mx4N82hAU2oacax6DBg2Sk4LYPBQmFMFkP15RatAjCs7Lu6GQtA22QsL3w4N6TXoC/LIBhYSRsV/4whfyUOMoDOBAfvKTn0gHsWrVKlq8eLF0GuCEE06gJUuW0Cc/+Ul5XjT6RsBfPM1wLoDtfOinnS0yEsfbrgedP9DXJJ6o7nQ32gbb9yMNjs+8Htx5YR/3feG+LrGftsF2Tep8zGvStBU2wgbobb8Dadu3b5c24P476qijlMbBXQ5euL/Dhj4XXvcF0OVQIgohK+fx3nvvSQPhfc4991yqrKxUGgc8IXT4qvtJ4aa11Vl2wTzWDfbx0qc73k8bPv7xj8tZuOAoTzzxRKUZWOCCwk1x77330ve//305sbLm2GOPpcsvvzx2wZqXE0Lfd+zYQR/+8IdlJKsbve+f/vQnKi0ttd6Ymt/+9rf0+c9/Xn1K5B//+Adt3bpVtke50fmg1vTss8/SmDFjaOTIkdb8f//738tr5ZxzzlEpcfT+a9eulQ3lGnc+mzdvlt+DuB9b/lgSFDZiVT+UhRu9/2OPPSbLE9HKwJbP//zP/8i/DQ0N9KMf/Uhua3Bv4qFqOhUN7lucS5wrL+eAWiWci3b2NmL+QRiYRLooNsyQJQoi+qUvfUmlxkFNRnjYfo+k89OGu9NEYBYzKEfxyhaLoH3++eej3/rWt6LiRpNlctxxx0XvueceqbNRjNeDjSBt+NWvfhW9/fbbVUqcTGyA3q9ysNdd+gg8XH/jpw3+dl+2U1PWY1/6B3ERyac9noT6le2f/umfaOnSpXJtXOFE5Bo8X//611OWd7FdD7nilw0o8zCQF+dRjPjmQDa0UrPaDDNwHHgNQATt1772NZUaRzuRjo4OqqmpSfmOzBQn7DyyoO8OpJ0aKuZQS81IatiAXpZqqsZ4lSlN1I1xLCVO4yBEB5G5x6roMSm2tPjYGUhfRujGHUcm8SxwIsuXL1efmIEEO48s6ZsDqaC69nq5mJUOEqvGeJXVNURdauwJROwzp/5pOTBues0YapPpGNNyL7Uj7YFq2qX2nbUdjoho/eQ51LhTHR/NPV4kG8fB9A94QISBnOI80M2DluPrr7+enn5aXOR5IJ0NQeBlA1qr0T2JmI+se2Ew6rbzq9Q8lYzAMBXvoZfXXNBG0Zufo+rbz6dm9zq9qGGI2osbOKPm8a1UfWqtCmevFw4newcCx/G5z31O9jDV19fLrkUQ5nMRJGGwAV3kDz30kJx/pa6uTqUGiy6HCLplTMH7qy0dovuHsT1kyJAkvX73TZUHQD42nZZMbbBJvm1AMNKsWbNkkJQ/jajihWahWtBb1Txoz9FErwvZ3KlGwDqvOU2HlVPV5MZYzQPSPLVUrqzXrD7vauqgxVk2ymrH8elPf5puvfVW2binf2+YzwVkINkAPbrN8QCz6YCZrsXvcsDFlkS6Lql0XbV+dgfZwLHIw4ugbED+WXfjttfL/auaNiVM4LOrqUqmS1lQH62f3BjF9D3udD2hT8K+QjCxUNuC+GdR8/CeGMgCuhDFa4rnhEaFcC4Gkg245oq2q3agIAo5+zYQNbq2eeoFVOMayyKH7auaQ3RuHdWpUHV3uqxhmPsKQftJxdz452zaPPAbUOPgNg4mW9h5+IC/cSDBoR0HXlXYcTDZws7DJwrNgcBxoFcFjaMIOWeYbGHn4SOF4kC048CrCnpVGCYX2Hn4TNgdiNtx4FVFd8cyTLbk5Dx0JCNjBw7krrvuCp0DgePAWBVuHC1sZDdpCChBt4vajoHAJ1z4Nnp7e2WLPgJFJk2aJOcXcIP4AOyj+4Nt4GkX6yv2IJ0N+B6v+TzCYAP6yuFAbr/99lAM54fjwHByDHJzj1UZCOeimGzAvCMrVqyQw+IRZ+Qm8HIQjiCJdP3Z4gdEt23bNuDjPNLZ8N5770XvvPNOGXshClxpgkdcEJ5xHAPlXBSTDcuXLy/cOA9xnBQmNZic5Tvf+U6/toGIC0HWEPlVpXgQN7/a6l+4wTTPoKrYX42ocBwcAMbkC3YeARG0A9GOo6KiQo7DYRi/YecRIEE5EDgOdMdiVvN58/SycQzjL+w8AibfDkQ7jvHjx9P8+fNluwvD5IMILi5T0CBjS4dgODpiPLAP5hYw9XjHB/hr6rQA5GPTaUlnA7DpIGG3AQ4E84H47UD0qwq6Y+fOnSs/Az4XxWMDgB0HDx5M0gVdDhFsmILMbekQbSC29+/fn6R3G2jqtADkY9NpydQGm4TdBkxvj4WUbrvtNt8ciHYcWJwKU/LjO8JeDloA25CZDdAjFgPn26YDZroWv8shpzgPns/DPxtEDaTPcSCI47jyyiuT4jgKqRzYhsxtWLZsGc/nwRDddNNNfWoDESdahpx/7GMfkzElTPEj7lu11b+w8+hn8O6YayMqHAdeVbA8AtbR7e4ujPVgmOKAnUdIyNaBaMeBNg4EgInqptIwTDCw8wgRmToQOA50x44dO1a+9jBMf8DOI2SkcyDacSCOY+HChSqVYYIngm6XbEQ31qA7Z8+ePUl63V0ETJ0WgHxsukxE22DTQQrdBjiQO++8M8mB6FeVSy+9NCmOY/To0TRixIiEfPhcOFJMNmg9umttOmCma/G7HPq86NPGjRtlRn4z0Bf5wXwKP//5z2nmzJly/oTjjjtOOg6MVUHIORpag2KgnwtNGGxAYObDDz8sH9x4gLgdQlDocihBn69Ki4GJRkaNGqU+JQJHAYORwYwZM2jt2rVKEwdPRFz8ehEaE+gx4YjXhCQgnQ0QLHzjRX/YEBF5lURFujqf+I4jjhxEh5V8EEtzk4kNt9xyC61Zs4bOOussOVbFPcgtrOVgwjY4+GED7rt169bR3r17afbs2SrVIehyENe7s2OmoqcfxJcPGzYsSa+B3tRpAcjHpstEtA02HUQTrA27aeWUEmp4yvkMIoe/Qb88LBJLMwWks+HGG2+k0047TVYlf/jDHybowlkOiaJhGxz6aoPWY7Ywmw6Y6Vo0fpWD3f0wOVBKNat3UfmS+Ar1r933cXr1T72xRa1zpba2lj71qU+pT3b27dsnp6hjmKBg5+ErwoEsKafFC4X76FpJl/y1kX50CdLbqUF4c3h0SHWW68hinEo6Nm3axEFiTKCw8/CbshpaeuZi+tDpndR0+1gqEVVE2kBUKV478OoR3dlI9ECrWryaYQoXdh55oHR8NV13ayVdGimhKFrDx1YQLVQ1j1NrqUXtxzCFDDuPPPE/b4hahvhbEjmMuldWU+vEeM2jytklY3RDGMOAsFwPfY7zePrpp1Wqv4ShTz1XGz70yn10xG1nU+9dl1MPesKf+jEN/tStjrJqPs1+4Q26qv02Gic+pouQcffr19XVqdRk3nzzTdkC77VmR18o5HPhJ2GwAdfDQw89RG+88UbK6yGf6HKIoM/XFHTD2NIhcBwA20OGDEnS41iQKg+AfGw6LZnaYJP+toFO+/+o9+5PUc9779Nh4tXlQ+PqZP+5lFV1tOCZn9ClYj84jnQ2aP3hhx9u1WkbTjjhBDr66KMT9P1dDhC2wRG/bIAeDwjEcth0wEzX4nc5RHBRmgKFLR2CjFH9xj5lZWVJereBpk4LQD42nZZ0NgCbDhIGG0TuUt9XGwAuFDgGU1cI5cA2OOKXDQB2DB48OEkXdDk438YwDJMl7DyKBA4SY4KGnUeRwEFiTNCw82AYJifYeTAMkxM5OQ89RoMJBrRuM4wmLNdDCdZgUNsxMPkMZrGy0dvbK7tqESgyadIkEscrjQPmE8A++IG6a8gEsyBBl6oQ0tmA7/EKiComG9AIumLFCjmHwqJFi1Sqg9sG5GV+VzGVA9vgkOn1YMP3chCOIIl0i9uIHxDdtm0bL/oUkA3Lly8PxSI/NtgGhyBtCMv1kNNrizhOChMM4mSrLYYJz/XADaYMw+QEO48igYPEmKBh51EkcJAYEzTsPBiGyYkI1v8wBQ0ytnQIll1AjAf2wdwCph7dQQB/TZ0WgHxsOi3pbAA2HaSYbAA9PT309ttvJ+ncNsBWM69iKge2wREAOw4ePJikC7ocItgwBZnb0iHaQGzv378/Se820NRpAcjHptOSqQ02KSYbtF6fNFMHzHQtxVQObIMj0CMWAw8Umw6Y6Vr8Loec4jwOHToU3bp1K8d5BGTDsmXL0vbr7927V54XN8VWDl4MNBsyuR5s+F0O3OZRAIjzpLa8GTp0KA0aNEh9YoqZTK6HIGDnEVKwnOBFF11EHR0ddOyxx8qqJLYvueQSeuWVV9ReDNN/sPMIKVjYGs5iypQpdOutt9L9999PX/ziF+WE017jEhgmSNh5hBQ4CAx8Ovnkk+nvf/+7nK0egxFvu+02Ki0tVXvF4SAxJmjYeYSYm266KaEdY8SIETRt2jT1KREOEmOCJoJul2xEN9bgHRxriZh63V0ETJ0WgHxsukxE22DTQYrFBgyLvvbaa+nDH/6w3BfOBLUOrTdtMPPic+FIMdmg9eiutemAma7F73Lo86JPGzdulBn5TSYL7KSakAg6XZg2MtFrG7z28+M70ulffvll2UiKMn/22WeT5pPAPuDJJ5+k008/nU455RT5WeOHDUGXg23fTK6HfBMGG9yLgM2dOzfBIQSFLocS9PmqtBiYaGTUqFHqUyJwFDAYGcyYMYPWrl2rNHF6enrkU1OvI2ECPd7pUzX8ZWLDtm3bPCc+6asNOO7FF1+kM844w3qCtPfFmipe+GEDLpZf//rXMihn4cKFCe0a2oajjjqKnnjiCXlC0UbivvkKrRwQDHfuuecqTZx014OfNngRBhtw361bt072xs2ePVulOgRdDiXiQsvKeeDkwsAdO3bQ/PnzadWqVUrjAB0MwA/wMuDQoUPyB2DhGC8ysQH7nH/++TRhwgSlcXD/JDzVbOh9vPQA3+H1G9IdH7QNuLHx151X0DbYyMaG9evXyxtj4sSJ8rObdNcDnCucqI2grsmgbHjsscfowIEDNGvWLJXqEHg5iBOXRLpIOkQy9neEKWx47rnnoldeeaVKZQqdadOmRYXzUJ8SCUt0pxdB2nD33XdzhCnDMIULOw+GYXKCnQfDMDnBzoNhCoxUjdtBEkHrqikIQLGlQ3p7e6Xx6DLcsmVLkr6np0dmjL+mTgtAPjadlkxtiLpa85nCBucS59R2ztNdD8CmgwR1TQKbDuKXDehVe+utt+RwBFMXdDlE0C1jCrpxbOkQ3T+M7SFDhiTpdRdQqjwA8rHptGRiA/YJixdm/MHrvGdyPdh0EBwLUuUB/LgmbTqIXzZAj9gmdLfadMBM1+J3OUTQn2sKFLZ0CDLGEwL7lJWVJendBpo6LQD52HRaMrEB20zxgAeBea61pLsegE0HCeqaBDYdxC8bAOwYPHhwki7ocnC+jWEYJksGgPNop4YpTWSON+1eWU0NG+QWNU1BZGY1NXW1U9PKcI5M7V7ZJH5J/xAvqz7Q1UTVC/vrFzD5YMDWPEqnNlPdWGx1in+NtCvaTDVdrdQstWGjm1of6FTbhYhw0DM7adbcCvWZKQaKzHnoWoQj1bFaRCfdq9NVLcR5mmL/cTRnTS2NnHIr/VvFHGqpGZniKStqMSrveP7Io4EaFqp08XRF3u7vSjwONRyV5qoRtS900nFs9RR1vBDY0r1yOtWumUPjjBpUu/7OpLw1+A6RH3Ruu6Q0ODWZDQ0J3xcrM5Gu87x3u5Nklm+85pbm98Mpj64kdh3FRXE5D3mRtsnGVEjzVDXj1poOKl+CtF2ijtFMreIGO2Ffi1CUUs3qNqqfLGoeq+fTj9vrqappl6qRWBA3S6XKO7qzkeiBVnUzzyGaqPLfPI6m09KE72pfOI46RL7OcdXUPDPRCWj2Hk80oqeFWkbPcvYV9sx5tF3UkpZS4+R6altdIyyOUzFX2RITUXsqU0rNmjE0C7q55dRZDrucfdsWzKFW3PxHvUItVC1qXiI99puE0xF3epvcdymVb26h3ccoJxYr3zZhgHJAaX7/oZW1NGYiu45iIyfnoZ88/YnVhrIamkXjYrrYU3RyNVXKm6qUykc7N2lOjBU3gH7CnlorbjpNPVXGHE4VVY/HLe5819snEg3aTCpNUFZOY9bgVcnOewdFbvpGE/tWOVtW0tc8BJPLyZmBopQqylqdWoiQcfNkoijIu6jqukrHKcE2/O3qpA7XcZXXVdFPB4mtV1ritglt+eQO6pTf5/37UdaHCcejidusHQ+TLejtCAMfwvBak927d6utZBBAgicP5hX4r//6L2poaFAaBwz7xT74gbpryARBJtClKoRMbIDt+D438mk8F1t4VbiX2qdWynQ/QHW8FU9Y5I8GwJlOejreETdR8xPdVIOakLoxvwqFciKl4lnfKRzMUVnOqRT/rZkgykPYu1SUG9p1cBP/aBhRnRMXlIh0cK3KNvHSt72FJlwsfv8pVbImVAcnKrSdolZTuRpbqXn/LbUhSGUzziXmDsnlmsSxXnO7BHVNBmEDgugwjw3KyCynwMtB3IRJpBt6LH5AVPyAfh2SDxu2bNmSOCR/Z2NUPKkRcipFvIKIxLaoeC2JYgu0LaiKNu4Uleqmqmh9u0yJ69vrXcdZUHopk+vFcfXi6F1R8Uoh/gJsO/kD/V3yO/Rx5NbH06rUcXG7BPg9C5Az8sV++nsyxf3bdR6O1C+od36n+E3x35tcFhDY5thk5BFLS/P7Y78jNTwkPzMbli9fHooh+Tk5j0M8nweTFW4H4w07j8xs4Pk8QkxyWwLE0p7AZEgp1Swpp8Uc51FUsPOwkNyLAbH0ZDCZU1ZDzRznUVSw82AYJifYeTAMkxMRzLhsSm9vb1KaFj1LN/bBsgCmHt1BAH9NnRaAfGw6LZnYgG2meMDroXmutaS7HoBNBwnqmgQ2HcQvGwDsOHjwYJIu6HKIYMMUZG5Lh2gDsb1///4kvdtAU6cFIB+bTksmNmAfXHBhBrEhyeHurtB0HQYuw7r7b/CbHSf0PMkmhLSrADwdil698q/UtNLZ0/6bM8PrvGdyPdh0EBwLUuUB/LgmbTqIXzZAj1iMnp4eqw6Y6Vr8LocI1ngwBUEmtnQIgkdww2IN1fPOOy9Jj0lKAP6aOi0A+dh0WjK1ARdu4VFBdSrUvLuzg+rbozJ8vGAGv42ti4X+d24natwZpeYvPE3NagwMBh1WPpp9BCnOJc6p7Zynux6ATQcJ6poENh3ELxsw18YxxxxDQ4cOTdIFXQ4DqM0jkwFcTbHwbYh8eqJmkKBPcVPEBpNBXPuJGykhT6GRNQ+x/8iaFppTUUL/ttA++C1O/u1P6KJ2dau2xtLVsarmge8fN6+Fak/9HH37S1+nlnnjYjWSiolEi/XwAMZXwlLbHmANpqkHcHV3lcvwbZwcPSgNT9nozE6aLl4pGk7tpFnROs/Roe2PdsinsDzetd8cqkzMUyPy3tVUJWseP55rH/yWSD7tb6fWzZiaQB0f61bV3+kaTDdYpAlQw2hbUCV+8+/o5433U9WCtvhgxLJyou0FUpNicmKAOQ/vAVygdKx4ddBDziucG0QibsBZ22vF/eXtOEDFV6qp+VTjKS3IdKBbevJpfwV99bpmGiltFxKrecS/s/zMKpoz2Nl283+R1rvX+eBmc6dHLYopBrirVoHRr+3i1YHk0H3nya1B9XzxmW10mni9SBllikAo9eTe1dQhq+2lB+Jjb/OJH/ajJiGPlTWbxX2PqB1dnqIWxRQ67DwUR7+OJyuJ93f15H1UPHPFk/Ov4sYb+UA1LZ1aQdfvFC8Ip2bWZjCyZgzNElX47mOzqWvMoXGosaBtwrPtw07f7ccoZG3/SKodPcsaUVt/UPx3MO6YwAiZNoJo3rh4jaVLvLKc6QzqZ4qTkt7e3qTWFwz19VoNHN006MrBkPwZM2bQ2rVrlcZBd/Poll0b6GbCsF+vYcEgExv+8Y9/yJXCH3nkEaUpFsSNvJCormDDudG4ey+Vr079mmcybdo0qqmpyXqVfFwPEK9rLqhrMggbcN+tW7eO9u7dS7Nnz1apDkGXQwQ7m4IvsKVDYByeTtju7u6Wn916HAvcaaYA8zhTMrUB1exgwY2hn9Bu8a6RZE9F/hyH0SMTE1fvSl/BjGOdM7NzHBodiGSe83TXA7DpIEFdk8Cmg/hlA653xHlg0SXTnqDLIQIvZAr6eW3pEHgk/ABsl5aWys/mPiBVHsB2nFsytQEXfrCUUs1q1a6QILndLIHjapdJEB+dVXxy6ezRa4OY5zzd9QBsOi0g39cksOm0gL7agOtdx1mYeQVdDhHsmI3omxXBKsOGDUvSa6A3dVoA8rHpMhG3DUzxkOs1oa8Hmw6iCeKatOkgmr7aoPVwIDYdMNO1aPwqB777GIbJCXYeDMPkBDsPhmFygp0HwzA5wc6DYQoM3TDa30TQX2yK7ke2Cfp4YTzWj9iyZUuSHv2/AH9NnRaAfGw6LZnagG5GpjjAucQ5tZ3zdNcDsOkgQV2TwKaD+GUDAr3eeust2rdvX5Iu6HKIoM/WFHTD2NIhunsU20OGDEnS41iQKg+AfGw6LZnYgH3C4oUZf/A675lcDzYdBMeCVHkAP65Jmw7ilw3Qo5tWx1uYOmCma/G7HEqEt88qPB3Rf4hA27FjB82fP59WrVqlNA46Og0/ThtrAq+FL0cwkBeZ2IDw9AsuuIDOOeccpfEXeHl9QvoLHVIMUKZeYB/Ymg97gyqH559/XoZeZxuejusBvx+BUzaCuiaDsuGxxx6jAwcOyKEZboIuh4J1HigkVHG90DZ4AT1sSHVTYBxBebl9cFem4wT6asPLL79MbW1tcijA9773PZXq4LbhySeflLaecsopSutQiOVw/PHJiwmH5cZl5+EqBzgPk0xWa+vvFeOQhxfFZsMvfvGLtCuErV+/PipucrmtKbZy8GKg2cArxjEZg6c7w4QNdh5FwoUXXigHKjJMULDzKBIwmzZmHmeYoMjJeaB7lLtIgwMNWAyjCcv1UILGD7UdY/fu3TR8+HD1KZHe3l4ZzIMW+EmTJpE4Xmkc0KKLffADvVp0EWQCXapCSGcDvgf93TaKyQb0KK1YsUK2cC9atEilOgykcmAbHEJ1PchmU4N0rcriB0S3bdvGvS0B2bB8+fK0ret79+6VvWBuiq0cvBhoNmRyPdjwuxxyem0Rx0lhgkGcbLXlzaZNm2QsCFP8ZHI9BAE3mDIMkxPsPBiGyQl2HgzD5AQ7jyKBg8SYoIlgMI0paJCxpUMQKo0YD+zT1dWVpEd3EMBfU6cFIB+bTks6G4BNBykmGwDsOHjwYJLObcMxxxwju9jc+mIqB7bBEZDJ9WATv8shgg1TkLktHaINxPb+/fuT9G4DTZ0WgHxsOi2Z2mCTYrIBevS99/Q4i+2YOoBtfVLdUkzlwDY4An0m14NN/C4HHlWbAu7Xd+Bz4RAWG5YtW8ajapnMECdLrk2aCkxLl2p+E6Z4EPet2upf2HkUAGeffbac8jEVHCTGBA07jxCDdgw0gqKBWr/PMkxYYOcRUv785z/L6eKampoIU8LBeWAbU/StXr1a7cUw/Qc7j5By8cUX09ixY6muro6+853v0G233Ubf+MY3pO7aa6+VfxmmP4mg2yUb0Y01eBLu2bMnSe+uXps6LQD52HSZiLbBpoMUiw3z5s2jE088UTaWvvnmm3K9jh//+MeyRgK924bRo0fTiBEjEo7nc+FIMdmg9eiutemAma7F73IoQdeMPMJFqtmyAWa53rp1K11//fW0ceNGmZHfwAbM0KwLxATtAF464Idel0N/2YCZwS677DL605/+JD+fccYZ9Je//EW+xmh0HvgLzPz8sLG/y8FvG1Ltl4p090UQIDDz4Ycflg/uuXPnJjiEoNDlUII+X5UWI9UU83AUMBgZzJgxg9auXas0cXp6Uk/nDz0aAr0mJAEvvvhibD8T7fnwBPairzbgONiAG9Z2goKwAektLS1y0pc33niD5syZQzfeeKNsSAUDpRz8tAFgeQpE5LpJZwNId1/kuxwA7jusbYPa6OzZs1WqQ1A26HII9bot8LBYq2TChAkq1UGbjKeJDfdPSrePlx7gt3j9hiBtwBod+IvGUvdJD9KGMJSDHzasX79elqfpPLJar8SCjvDlRZ9C4jweeOABevvtt+X3MIwfnHXWWfTss8+y8/DBedjrLgzDMGlg58EwTE6w82AYJidC7TxSNaAxzEAlLPdFBA0kpiAAxZYOQYMMjMcIzi1btiTp0SAD8NfUaQHIx6bTgi45/GUYP0H/gO3aBOmuyXT3BbDpIH7eFwgWxChqUxeUDbocImhZNQUtsbZ0iO4qxDZGepp63YqbKg+AfGw6LVrPMH6DngTzegPprslM7wub+HlfYFEn9JjYdMBM1+KXDfr4CArSFChs6RBkDO+NfcrKypL0bgNNnRaAfGw6LUD/ZRi/QK0ZYrve0l2T6e4LYNNB/LwvYMfgwYOTdEHZoMvB+baQYglBYRgmJITaeTAME17YeTAMkxPsPBiGyQl2HgzD5EROzkO3WOcbtOoyDJNIWO6LEqzBoLZj7N69m4YPH64+JYIAEvSCYF6BSZMmyWUB3GDkHvbBD9RdQyYIMoEuVSFgnzvuuEPOvXDLLbeoVIbpG5gT5MEHH5RdnW4yuSbT3Re49hGDYcOv+wLBmStWrJAjWzHPi5ugbNDlkNOQfES5YUg+psnL55D8hx56SK5Kx0PyGb8ohiH5mJMEkwEV5JB8+JsgYjBQEAzDJBKW+4IbTBmGyQl2HgzD5AQ7D4ZhciLUziOI7uAg6F5Z7XRvL2xXKX2gq4kaVuZ5TVrxHdWwd0oT/VXYXr3yr9Q0xemeb9ig9mEGPBG00JqCBhlbOgQ9LbiIsA/WkDD1aNEF+GvqtADkY9NpAfpvYdNNrQ8QNe6MUnRuhUrLne4nmonKS9WnPNHVSS0L2ii6uoYumNpMzVMvoJrVu6hxchWVl6l9ChTd2G+73tJdk+nuC2DTQfy8L2DHwYMHk3RB2aDLIYINU5C5LR2iDcQ2ulFNvdtAU6cFIB+bTovWFzbd4ok9kmrXtFDtzCbxqZ0a8ESXUk1NXXqfBmqStZMGsUec9oV6X/XE39BAI2taaE6F2A+1g4VNTo1A1GhitRsh1bpmomsQUtT3IW2KqE3E9m2P1Sp0zai7s4OqzsTiRrBNH9dKzVRNlQXuPIC+AdwC0l2Tmd4XNvHzvkAsBrpcbTpgpmvxywZ9fAR9wqYgyMSWDkEfMDw3VjM777zzkvToQwb4a+q0AORj02nBnAL4W9iUUs2SRqqa3Ei7VldS65RxwiM4T75o+xiqvf5p56ZcM0fcmEtFeh3F6ybt1LpZHId9dzZSxxLhfMZWUj3yEvuVixpIyzxRC1ki9F9spJEPVDv7RndR9QP3SifU3VVOS2Wa+r6VB51axZoxNEum1VNLzWInD7Gt6dxOVD1e1G7cDgPHjS4Xv6iwgZO0XZsg3TWZ7r4ANh3Ez/sCMSpDhw5N0gVlgy6HULd54KIvdPCa0XJ1NZXKG7GRvjpWKcrEkx1xSgfa5CtC81TztqyguiVE01E7eKKSmsUrRKm4gTvUDdy5vYXq25upRtzY7f+9lGhNLY2UtQnUdDqos0u8Li0Zp9KEVMyh+vGDibbMoaqmr0onJWsYTUtlHvHahnBa88Y4rycuh9H+qDh+Yt9fu5i+E5b7gntb8oy8yc82w4XF68DMWqqf8wmitqXqpk0ErywNXTXULC6UpTRdvoq8/1AtjZE3cDd1bk5sf6jXNRopwqmQcFaj29TnNqonZ/+ODqIxqs0Etrm3jzhLbMNBTS4n+dLien0xv49h2HnkFTzF66kStY2yGlp6XXOsdtB83S6qE+ntr1Y5rwgGFV8RryoVTq1hZI14zRA1k91Dq2hOBdogOqnT1f5QMbdN/KdqGBC0XZRVUvXmcSptsXAI2LObtu7WTsDtEJztz8OM7oditY3Y64v4tk7xqsPOg0lAPJmSwGA5L3p6eqKHDh2Kbt26NfqlL31Jpcbp7e2NYuV9/PUCeuSTCthw++23R2+55RaVwgTBrqaqqKjFJNJeH6UFbepDYXPmmWdGDxw4oD7FyfSa9ALHIg8v/Lwv7r77bnlvmARpA+CaB+MC3cqqN0elyB6fijnWVytmYBNBt0s2IhyOPBDdOXv27EnS6+4iYOq0AORj02nR+zBBUko1q9FGEu/1qZjrtKMkN+gWNl7Xm5meqehr1aaD+HVfaD26a206YKZr8csGLRFRRZF9xm4R1ZqkNC04CO/R2O7u7paf3XocC9xppgDzOFPwQzF3AcP4CW4M2/UG0l2T6e4LYNNB/LovYD8cB4bOm/YEZYP+3gj6fE1BP68tHYJ5APADsF1aWio/m/uAVHkA23FuQX82YkkYxk/w4LNdbyDdNZnuvgA2nRbQ1/sC9us4CzOvoGzQx0ewYzYC4wFu7mHDhiXpNdCbOi0A+dh0WvQ+DJMPvK43Mz1T0deqTQfR9PW+0Ho4EJsOmOlaNH21QQs3mPaFDQ2WwW7ukG4dHt5AD69sUOHoGSBDz818LYj9shkk1221oZ0adFi6HASX50F3TNHAzqMPxIOo3KDR0Yn8lIPYmnaJ17yv0psPUOZxEl2dRBn0bmQ3SM4ZoJdkw4ZW6lDfVSoHwRVXwyiTP9h5ZIht4BmiMltqRqp098AzZyg7BrG11EynW29GyPgcGief8O7BcfEu0Xj+onYgnJKO/NQkfb97kFxCnvFh8+0LhU2itgHbEm1QwNaKOdLGpi5VY3om/cA5WeNS+uSal+re1XopiQP+mOKAnUdG4Kk9htqiTqj3mBoMPEP0aDwsvG2Bs+cHv60luq6SLpi6VA5hb9zZTPNv/BeqQg1kbrm4Ed2D44gWa0cQG9hWSZ01Zg3B8v2uQXIVwllUSp0QDKJ7FLcq7Guh2u2VIl3YUF2vbHCNT0EU6uR6ka8Tzl675stU+X6KgXPPHakcDilbxO+mxUmvQrp7Ny7uAX9MsRBq54GnVjjAq0gltconLVEdbgY5BkQPdEN4txO+/dQeUmNE4iNSu/+6z6lJyBG0JGoL6omMp/72Tvr7ojlUP7NGhoQ7mKHgHt8fG7Q2jsbJJ7yQU4XzwmuIsm+XchZ4xTJrMzLsnJxxLPJVaea5VPqK98A5+sIYZ6AfiRqM+r5xwkF1Gs6Dax75BWUaBiLoLzZF9yPbBH28MB4xGFu2bEnSo/8X4K+p0wKQj02nBXEe+BsGnIbEcnHTiqfoxFanqo7RsHqIunQUuAldY0R2r1V6p9Ygx7cAWVtwPZXFzb3nY0on6F65mOaogWka2/d/sFYPknMN3Y9iwh6iU0cLA16Pj1EROSTaoEF7h6glYR/pHC46j7a0eQ+c+8oFctOpwbh+A8bouAlzzQP22K5NkO6aTHdfAJsO4ud98dZbb9G+ffuSdEHZoMshgj5bU9ANY0uHoJsHYHvIkCFJehwLUuUBkI9Np0Xrw0Dp1FniVUG1bVR0UONXKqj7L7viQ9TFU9u5UeMD1tof/rVrCLt4Uk9pou6EwXEQp50kcRBcC1WpG1pj+/7XjtaD5CqocrQejj9dODGi4W8JZ/B8jzGEXtmgPmnQZoM2EgyCa/xkN23a6T1w7oqhsGUpVT+g23mEWPIMO1iTxLzeQLprMtP7wiZ+3hfoptXxFqYOmOla/LJBH5/Tok+IQMOiT1iMKZ+LPv3mN7+RXpYXfWL8ohgWfXrsscfowIEDhbnoU1BY/BrDMCEh1M6DYZjwws6DYZicKHjn0b4w/92AuuuxYQOCscT36SCpTBoL+xBCHvtt1jD4XBG/IeNGTvV71SeN0/sjckDMh2w4zTL8PmCCuEYGIgXuPNBNmdit6T9OTwPWXakbW+HEWIytc4KmYl2h3uQeQu76bfg+H9Z8kU5oymLqGN1J92YSeyFjRZLLV4ex5xx+HyhBXCMDk5ych+6myzdo9Y0Re8rpJz7CqcfRnDW1NF08Bd2h2E1d9hDwhOAl9SRHGsKxY/vGQq+dblQZSKXn73TVAGyzifsXQv6w8dt0rUc88V2h4rHfE6tJ2H93DDihmWOoZR4iUo3Yi6TyRRqiTXU3sA7Ld8LY/3OpV/i9HXfZ6PxlDSZW9qIcNsRt0OWTcJzrnLn1ibUgJZZrpFhIuC/6kRLMR6i2Y+zevZuGDx+uPiWCriD0gnR2dtKkSZNIHK80DugOwj74gV7dQQgy0X3FXmCfO+64g0455RS65ZZb5EVyb3mzM2mwuHhaJ4qawA5xEZ2GGgFuGnGRYJUzGQI+kjpnquAlcQNXd35VPCk7hWOoELUG5I6L6l4qX/1V6hT7YjLi5qniIYoFmjDjuMxjOtEShG2Li/L+cmoWT/7Y947F8Uofe9rqPHFTwp5WcYNirZZO+iqWTRA3f7uoucgbFhe6zJNcdgtNzFbxVI/9XpXXznJafGozVe9UNp1aS2PahS1lYnsm0VK5Loztd7trPa681G/S2Mr3mjUldMHQuG0lT82kaPUDru9TZbD/q1T91wbju9wIByhu9oqxjh4Os/MrzXT+T0vowuOc/PGd4xDsJsqqU2zf9tko/aZXfOeScpmGYDtd5uf8uISe/7eos+yE2PfOz0dp5TtiX2Fmm3SKuvzrqNz1u8AZZ5xBDz74IA0ePNhJUGRyTaa7L3DtIwbDhl/3BYIzV6xYIbtLFy1apFIdgrIhVg6I8zBJN9Gr+AHRbdu25X0CZOE8EiZAbltAwtHVR/VUvG0LqqLidSIa3dkYrZrcGN2FRGyLnyV+Y1wweS8m8XWnyf3bovWx/OzbmBC4qgk574o2TrZ8XwI4Tn0fwH5q27E9LjJPIx/35MPmb3v/udnxfN0TEmP7Wxu9f3cWJJav6/fik7Dt6mfExrNfjn+fst06abKbJNvwHe787dtPfY4S8nXKxL7v+/eoMgUu22LlqCiGCZCXL19euBMgi+MCicEQP5Je2IVVzsTTVVRDy2XYM8Z4OK8BrZudaM54hKfCEgLe/miHs16s+CwudqLTLnAWUdLv9B7b8RBt1+uL+X0Cp/rsVwi58dtKz6fI1v+IDf93TwUgw8o/9lG5bfvdGWEtX/dyC05bDCoWH/x5lfi+MUQH/lfZ7hH67gJtI6glSZvQViTL1p2/ffv9S/BZIWo+42SZuPbdcK94XXK2n9oVD6uPnx9XORYRuC/CQOgbTEeNFNXLshqaFQvBHkcdauCWXCVN3KS4gWLtD14h4BPHUO2pTtp0cSPQcQcSnYB12xWiLdI6FlTK743fvKJ6rN7ffQ8hd/+2mguo/W/eY07qzxen0eN3Z4StfF2/131DP7Wriho/I375f/8iOfxefTIpHV8dC78vWSLKDonIP43jTliPRnxVm3x9EbrJ4vuQ9qiow8h93aH07vMjUOXI5AHxNEgiXfXs0IBZt0W8hiS9nrirzUyhweu29PNry4BhQ2tiS71s0UfPgq5iMzHQoCprLoni9NAwxUionQcuvn4FXZviPT3WiyCq91g7lie3saDKyhTvHhim0IlgJJ4polqTlKYF8wngpsY+XV1dSXp0BwH8NXVaAPKx6bQA/Zdh/EI7Ndv1lu6aTHdfAJsO4ud9ATvE60WSLigbdDlEsGEKMrelQ7SB2N6/f3+S3m2gqdMCkI9Np0XrGcZv9A3gFpDumsz0vrCJn/cFYjF6epzFl0wdMNO1+GWDPj6Csf+m6EVlbILgEXhuLMh03nnnJekxVwDAX1OnBSAfm04LJiTB3/CDgKTkaM5Y5KPU4/2/Wk4unPk4l3hPjh/ISFaj9yU+jsb+G4oR1Jpt1yZId02muy+ATQfx877AXCRDhw5N0gVlgy6HULd5wEmFHnc3o4vYMgZodEUEabSZKrdnMc4F+equ4z6Drkyzkdc9jkaN2ZHpTNgJy33BvS3Z4B4/oWsF4ib3Gv/R9FuETM8hmjeOGpa7x7lAr/Jxx2PEeixE2hO2tVt0LQaiagpumyCx2kp83+qVrRSb6FjRvtA1HgXfi5gS1JayGGuS3JPitk8Jx1gULew8ssAdKdk2upbuFTfUZnEDkqxZiHQsVfDaEHFDq5nTr6mTSzJgeYa6r8WXSiBx42I8jTxmZzXV/uApxwkgEApp0aVED8yJR0xK4HAsyzbAeRGWT0B6G9Wv6RSOInHfpcKaOUYtpmJifCkGDPL77pcraO+mFmoZPUse07aghWqXEC2V20TPoEYsnEx8iYhdVP0AlqBwgxqMsk9LplGuTMHBziML8CpS+SieqA1Ec50Bcpt3VsloUoDIxqsvFe+NsbDzdmqdV++EbsdeQ5DmTDwsn8xYKqH3BXrhj+KvjpyVxCMmJR7LNpBrqYTYK5R0XnpZCAdzZTvY6jgnJzrzE0d107Mv6t+ipiFY4gxIw/YUsSucjIzYlLUK1Fw6jGUXuOYxkGDnkSnZjv8Ydkn8ZoYWtZZYOLeuKShZXUNHl8igbQfXmI0EbGN2XGHrshYy/J+MdpJ2ule8Lpm1mPh4FP0b3L/Fa9upRcW+H4tFJdjINY+BRATdLtkILgiA7pw9e/Yk6XV3ETB1WgDysem06H1CQ7bjP66JOJPluJZR0ONc6sTDOLZIkxC0JySOjcGrkM5XYR27YhnTcdnJSbbOEc4qeeCaGo+if4PL0bmdnns7YawJpIBrFV7Xm5meqehr1aaD+HVfaD26a206YKZr8csGLSWIZZdHuMBcHeXlidVcN+gu2rp1K11//fW0ceNGmZHfIAANyzrgB/PSC4xfnHnmmfT000/LrsZsSXdfBAHui4cfflg+uOfOnZvgEIJCl0MEfb6moJ/Xlg7BRCHwTNguLS2Vn819QKo8gO04t8BBIZaEYfwENSbb9QbSXZPp7gtg02kBfb0vYL+OszDzCsoGfXwEO2YjMB7g5h42bFiSXgO9qdMCkI9Np0XvwzD5wOt6M9MzFX2t2nQQTV/vC62HA7HpgJmuRdNXG7RwgynDMDnBzoNhmJwoCufhXuskb+joTzmzOXo6dEwDttU+fSQ2/qRLj4FRkap+/TZ0N2fYQxIfm+MGv9mJbI1Fmor8QrsuSqwcmXxQBM7DPUYjf8huUBmReTXVrEZ8A2Ia2qie4jEQfSM+/kR28cq4jFL1Xc4efUHe7KfeTVNP+pWMV0l3S7mnOoyjx8A4ZS7nhJ1LoV0XJV6OTD4ItfPQDUBx3BGMztPOHKNRvVI8bYS+euVfreNH3GMzslk/JHYzqWAxefPJQW9GPIbFRnlMLE1I7OaN74vxJ8+3jqJyhIDrMTD6u+RfYWNs3/b4b9M1CV0zcqe5QHTsrqbhNPl/xtNSORdoHCxfoI91fi8cmSuaVf8OfIeseaHMW6h25n/Sf6ZdF8VdHjp/pKHMVbqsvahtS9nEzp+77KVeXwN6P0fkd7jLUe5fPOA3hoEIltQ3BQEotnQIxvHDeKwfsWXLliQ95hkA+GvqtADkY9NpQf81/iYgbtYOuUIZZkDvkGM7Kr42JWGMRktNJ1UK/aztFyaMH2m+H5eQuCnKlzppQtpGN1OruChf6/Ae0+GAm8kJtHIHfiVMtCvp2/iT+u+eRqVj42NgysV3tVz7ZTnLe8uaMTRL5lkvfuNioiXONj13pHNTCQ+mo1bbaHHyq47YZzrGpczsNG5018zuOxupYwmcFULhq9Rs885s73JPUb43XC1qXitXURVsXP0tqrquSkades4YJm5knA9ZHiL/OdP/V5ZHh1BV4zeItKp54+Q6MXJbHmSW4xiqvf5p4QHFtaXH6MSC1xxHJ68BsS9mxu/oFL/PVY5u5459bNcmSHdNprsvgE0H8fO+eOutt2jfvn1JuqBs0OUQQZ+tKeiGsaVD0M0DsD1kyJAkPY4FqfIAyMem06L1CYytEzfZdOG8qql1vFrycH1vwhiNxp3Ooj/m+JGWzeJ2FTfF4gqVJmTcPLwmdNNzO7zHdMhXEjlWxKmax6vzTtW9erzrpunj+BMaqULa1Q2C7/rKBaK8t8SPd16flspXGWzTF8ZIhyaesbGo1XHzWowxJwJMoYgahyjDxBtdvIoIZzldHFf9RKWzD5zVglnqdQmOTt+kVfSZ4UQfLPtyzIF2bk/9ytj+6Lh4NK04D1WzPkK077F4/vK72pxFmbCN8HqzbMpEyR8j/v7jz+J3KrCvLCdE9tbTLPWbUGZHnCW2XeVocvjhhyddbyDdNZnpfWETP+8LdNPqeAtTB8x0LX7ZoI+PoCBNgcKWDkHG8N7Yp6ysLEnvNtDUaQHIx6bTAvRfB6ea2imq33LU6UxUZW1jNOTOguTxIyRuslzWD4lfqC6HkvR9ij6MP8ESCj3Neq0X57uuGErUIXyEPt7dFuE4F7kZe/Jq0SukpQNV/oYuZ25WOGbZSPqicFa6RoVXs9hN6vzep/Zoe9Kti+Kq1agazBkfFcc9dX8sf3ftTTpDvQZNDFELmVlL9XM+QdS4VO0r0pbMEZl9zHESOpReldnnxVccWqnLMRH94LBdb+muyXT3BbDpIH7eF7ADK96ZuqBs0OXgfFtIwU0Qp4K+Kl5VnKeYeOcWrxnOk9EYo6H2tY4fyXH9kPgFLm4gDLXH98b0qGKr92ofxp+8cZJe60V/Vzdt3a2Pd+cVdy6lU5dS9QPxGlW83SA9FV8RryqqTEbWiFcj8QRvf6EqVqOK/Xb8Xlm+qNW5xsqkXBcleb2aofuFS3k1mzVonOkLpDO8Gq9s+J3TqXO0eF0aNUjaFVtvx+Xg9pfpcpQKJh+IGzQJXrclEXPJQoAlFsXTXn1iCgVet4XXbQkQPGnRs6Cf5qhp4Clt68ocmJi9HY7wU7/YYeeRFsQ2iHf2WPcmYi+ya1codirkHCem+BOfwoQXdh4Mw+RETs5DV03zDVp1GYZJJCz3RQkaP9R2jN27d9Pw4cPVp0R6e3tltRQTgkyaNInE8UrjgImBsA9+oO4aMkGQCXSpCgH73HHHHXTKKafQLbfcolIZpm+cccYZ9OCDD8quTjeZXJPp7gtc+4jBsOHXfYHgzBUrVtALL7xAixYtUqkOQdmgy6FEOIIk5wHDRo0apT4lgtW2EOW2Y8cOmjdvnpztyw0M7OnpkUEsXgYiOg3Goa/YC9jw0EMPyVXpeCYxxi/OOussevbZZ+XCSW4yvSZT3Re4Mb1mKPPzvli/fj3t3buXZs2apVIdgrQB5ZDTa4tuFMs3KAiGYRIJy33BDaYMw+QEOw+GYXKCnQfDMDkRaucRRHcwwzC5EUELrSlokLGlQ9DTgpsa+2ANCVOPFl2Av6ZOC0A+Np0WoP8yjF/oxn7b9Zbumkx3XwCbDuLnfQE7Dh48mKQLygZdDhFsmILMbekQbSC20Y1q6t0GmjotAPnYdFq0nmH8Rt8AbgHprslM7wub+HlfIBYDXa42HTDTtfhlgz4+gj5hU/SiMjZBHzA8NxZkOu+885L06EMG+GvqtADkY9NpwZwC+MswfoJas+3aBOmuyXT3BbDpIH7eF4hRGTp0aJIuKBt0OYS6zSOIWBKGKTTCcl9wbwvDMDnBzoNhmJxg58EwTE6w82AYJici6HbJRnRjDbpz9uzZk6TX3UXA1GkByMem06L3YZh84HW9memZir5WbTqIX/eF1qO71qYDZroWv2zQEkF/sSnow7WlQ3AQuruw3d3dLT+79TgWuNNMAeZxpuCHYu4ChvET3Bi26w2kuybT3RfApoP4dV/AfjgODJ037QnKBv29JWIj6fGeat4CZIwbG5MBzZgxg9auXas0cZAx+or1OhIm0GM+Aa85BcBLL71ELS0tct6CG264QaUyTN8499xz6cCBAzJOwU0m12S6+wKiYyls+HFf4L5bt26dvC9mz56tUh2CskGXQ06TAcFATAaESXryORnQo48+SqtXr1YpcR5//HH5d8KECfKvCRwPCrm8vJxOP/10lZpIujwA9vHSB2mDxtzPfbwtr2IrB79s+O1vf1vQkwE99thj0gH292RAqAYlkW59CvEFgazb4gWORR5e4LtF1a5obPjWt74VfeSRR1RKHLcN4kkkz4ubYisHLwrFBuj9sIHXbckz8LL9jV82iJOVdoTxpk2bZBuUSTGVQ18Igw3FBnfVFgBoY+LpCZiwwc6jABA1RHYeTOhg51EAsPNg3ITlWihBA4najqFbpr1AN8/WrVvp+uuvp6efflql+ks6G4IgDDa8+uqrVFtbK9euufzyy1VqMmh9Ryu615odfYHPhUMYbMAEXFiS5I033qC6ujqVGiy6HCLoljEF3Ti2dIjuH8b2kCFDkvS6CyhVHgD52HRaMrXBJsVkA54y2AddZ6bObcPxxx9PRx99dIK+mMqBbXAEejwg8KCw6YCZrsXvcojgojQFCls6BBmjGo19ysrKkvRuA02dFoB8bDot6WwANh2kmGxAWQObbiCVA9vgCIAdWPHO1AVdDs63MaGGe1uYMMLOowDIxHns27ePxwIxgcLOowBAgJOuknrhFSTGMPmCnUeBwK8tTNhg51EAYMATOw8mbOTkPHAh88UcHMceeyyXNxMDvR1hoAQj5NR2jN27d9Pw4cPVp0R6e3tl9yECRSZNmiQHbbnB+zn2wQ/UXUMm7777rtSlKoR0NuB7vAKiiskG7HPVVVfRkiVLaMyYMSrVwW0D9jO/q5jKgW1wQKP4ihUr5LD4RYsWqVSHwMtBOIIk9JBbGxiuK35AdNu2baEekl9MNpx11lnRP/zhDyolzkArBy8Gmg3Lly8v3CH54rhY8BKTfxA9CmEYIG5+tdW/cINpgRCWC4ZhNOw8CgC8w6ZzHhwkxgQNO48CAI1X6ZwHB4kxQcPOowDAhLb82sKEjQgCkEzBhWpLh+hxFtgHcwuYenQHAfw1dVoA8rHptKSzAdh0kGKyAWWNrjPMam3q3DbAVjOvYioHtsERADsOHjyYpAu6HCLYMAWZ29Ih2kBs79+/P0nvNtDUaQHIx6bTkqkNNikmG6DHawvaM2w6YKZrKaZyYBscgR6xGD09zuJLpg6Y6Vr8Loec4jwKYemFYrLhn//5n6PNzc0qJY7bBq+lF/yywYsgy8GLgWbDsmXLeOkFJjPw2iJOuPpkZ+jQoTRo0CD1iSlmxH2rtvoXdh4h5fXXX5dzlr744ot05plnyjSsFHbJJZfItiaG6W/YeYQUxG388Y9/lJMf33///bRw4UKaOHEivfbaa3L6R4bpb9h5hBTUNn74wx/KQUhY1Pi5556TE05jFnUbHCTGBA07jxAzc+ZMGjlypHyFASNGjKCamhq5bcJBYkzQRNDtko3oxhp05+zZsydJr7uLgKnTApCPTZeJaBtsOkix2HDSSSfRddddFxsU993vfpcwa7XWmzaYefG5cKSYbNB6dNfadMBM1+J3OfR50aeNGzfKjPwmkwV2Uk2QA50uTBuZ6LUNXvv58R3p9Nu2baPLLruMjjvuOFm7wNosbrAPePLJJ+n000+nU045RX7W+GFD0OVg2zeT6yHfhMEGNJY//PDD8sE9d+7cBIcQFLocStDnq9JiYKKRUaNGqU+JwFHAYGQwY8YMWrt2rdLE6enpkYFNXpP2Qo/uR68JSUAmNuDG8pr4pK824Dj0dJxxxhnWE6S9Lxbf8cIPG1555RW677775D7z5s2Tx2i0DQhff+KJJ+QJPfnkkxNuvkIrB0QunnvuuUoTJ9314KcNXoTBBtx369atk+1gs2fPVqkOQZdDibjQsnIeOLkwcMeOHTR//nxatWqV0jhABwPwA7wMQKg1fgCq4F5kYgP2Of/882nChAlK4+D+SXiq2dD7eOkBvsPrN6Q7PmgbcGPjrzuvoG2wkY0N69evlzcGepVM0l0PiIOBE7UR1DUZlA3ossfyorNmzVKpDoGXgzhxSaSLpEMkY39HmMKG5557LnrllVeqVKbQmTZtWlQ4D/UpkbBEd3oRpA133303R5gyDFO4sPNgGCYn2HkwDJMT7DwYpsBI1bgdJBG0rpqCABRbOqS3t1caj1DoLVu2JOl7epyuRPw1dVoA8rHptGRqQ9TVms8UNjiXOKe2c57uegA2HSSoaxLYdBC/bECv2ltvvSWHI5i6oMshgm4ZU9CNY0uH6P5hbGOshanXXUCp8gDIx6bTkokN2CcsXpjxB6/znsn1YNNBcCxIlQfw45q06SB+2QA9YpvQ3WrTATNdi9/lEEF/rilQ2NIhyBhPCOyD0Z2m3m2gqdMCkI9NpyUTG7DNFA94EJjnWku66wHYdJCgrklg00H8sgHAjsGDByfpgi4H59sYhmGyhJ0HwzA5wc6DYZicYOfBMExOsPNgGCYncnIeaBXv7y7SMNjAMP0BejvCQAlGyKntGJg3c/jw4epTIgggQTcp5hWYNGkSieOVxgHDfrEPfqDuGjJBkAl0qQohExv+8Y9/0E9/+lM5RJkpfDC51Pjx4+mKK65QKXHSXQ+47rzmdgnqmgzCBgTRrVixQg6LX7RokUp1CLwcxE2YRLqhx+IHRLdt29avQ/Jhw5YtW3hIfhHBQ/Izs2H58uWFOyRfHCelPwmDDbnQvbKaGjaoDxnTTg1Tmij99Mbd1DSlmpp4WZeiRtz8aqt/4QbTgCmd2kx1Y9WHjKmgutU1VKo+SWdS0iD+d4O0kVS7Rn1kmDzDziNgbDWP9oVO429czNpD+ppH98pOqozuosbJKoFh8gw7jxBQMdd5BYtLM9VYF4VD7QLOZRzNEf/GyW2nBlI6tUbUTxgmONh5hID0NQ+NeH2RzqWN6sW/Nrldx06D6RcimHHZFDTI2NIhepZu7IM1JEw9uoMA/po6LQD52HRaMrEB28VA5jWP4ga/3TzXWtJdD8CmgwR1TQKbDuKXDQB2HDx4MEkXdDlEsGEKMrelQ7SB2N6/f3+S3m2gqdMCkI9NpyUTG7APLriBB2ogxVnj8DrvmVwPNh0Ex4JUeQA/rkmbDuKXDdAjFqOnp8eqA2a6Fr/LATdfEun6sw/x0gtMHuA4j8xsWLZsGS+9wDBM9oj7Vm31L+w8GIbJCXYeDMPkBDsPhmFygp0HwzA5EUG3SzaiG2vQnbNnz54kve4uAqZOC0A+Nl0m4raBKR5yvSb09WDTQYK8Jm06iF82aD26a206YKZr8bscIj09PbLP2C29vb1JaVpwEAK0sN3d3S0/u/U4FrjTTAHmcaZkaoMuMKY40IFI5jlPdz0Amw4S1DUJbDqIXzbgeofjwKJLpj1Bl0MEi8eYgolAbOkQTBSCH4Dt0tJS+dncB6TKA9iOc0umNsCJMMWDXhvEPOfprgdg02kB+b4mgU2nBfTVBlzvmOznqKOOSsor6HKIYMdsRN+sWBhm2LBhSXoN9KZOC0A+Nl0m4raBKR5yvSb09WDTQTRBXJM2HUTTVxu0Hg7EpgNmuhaNX+XAdx/DMDnBzoNhmJxg58EwTE6w82AYJifYeTBMgaEbRvubCPqLTdH9yDZBHy+Mx/oRW7ZsSdKj/xfgr6nTApCPTaclUxs4zqN4wLnEObWd83TXA7DpIEFdk8Cmg/hlAwK93nrrLdq3b1+SLuhyiKDP1hR0w9jSIbp7FNtDhgxJ0uNYkCoPgHxsOi2Z2IB9wuKFGX/wOu+ZXA82HQTHglR5AD+uSZsO4pcN0KObVsdbmDpgpmvxuxxKhLdPenRjNapRo0apT4kg+g8RaDt27KD58+fTqlWrlMZBR6fhx2ljTeC18OUIBvIiExuwYtwFF1xA55xzjtL4C7y8PiH9BWzQTxSUqRfYB7bmw96gyuH555+ndevW0cSJE1VKnHTXA34/AqdsBHVNBmUDVkg8cOAAzZo1S6U6BF0OBes8UEio4nqhbfACetiQ6qbAkprl5eXqUyL6pk73HX214eWXX6a2tjY5FOB73/ueSnVw2/Dkk09KW0855RSldSjEcjj++OPlXzdhuXHZebjKAc7DJJMpAPt7GsIgp1uzEaQNv/jFL9JOO7d+/fqouMnltqbYysGLgWbD3XffzdMQMpmBpzvDhA12HkXChRdeKAcqMkxQsPMoEoYOHUqDBg1Snxgm/+TkPNA9yl2kwYEGLIbRhOV6KEHjh9qOsXv3bho+fLj6lEhvb68M5kEL/KRJk0gcrzQOaNHFPviBXi26CDKBLlUhpLMB34P+bhvFZAN6lJqammR5L1y4UKU6DKRyYBsccD2sWLFC9ngsWrRIpToEXg6y2dQgXauy+AHRbdu2cW9LQDY0NDREZ82apVLiuG3Yu3ev7AVzU2zl4MVAs2H58uWF29sijpPCBENjYyP9/ve/V5/sbNq0ScaCMMWPuPnVVv/CDaYFgFc1lGH6E3YeDMPkBDsPhmFygp1HkcBBYkzQRDCYxhQ0yNjSIQiVRowH9unq6krSozsI4K+p0wKQj02nJZ0NwKaDFJMNGCyGxum//e1vSTq3Dcccc4zsYnPri6kc2AZHAOw4ePBgki7ocohgwxRkbkuHaAOxvX///iS920BTpwUgH5tOS6Y22KSYbIBe92zZdDpdn1S3FFM5sA2OQI9YjJ4eZ/ElUwfMdC1+l0NOcR48qjZYG84///zoueeeq1LiDLRy8GKg2bBs2TIeVctkxmc+8xmqrKxUn+xgWrpU85swxYO4b9VW/8LOI6Ts3buXLrroIuro6JB/P/zhD8vtSy65hF555RW1VxwOEmOChp1HSDnuuOOks5gyZYqcse2+++6jL37xi/T00097jktgmCBh5xFS4CAw8Onkk0+mv//977R161Y5OO62227jLlkmFLDzCDE33XRTwhwdI0aMoGnTpqlPDNO/RNDtko3oxhp05+zZsydJr7uLgKnTApCPTZeJaBtsOkix2IBh0ddee61s7wBwJqh1aL3bhtGjR0vnonUQPheOFJMNWo/uWpsOmOla/C6HEnTNyCNcpJotGyBwCdXo66+/njZu3Cgz8pt0NgRBGGxAIN4nPvEJ+RqDNhCv+STyCZ8Lh7BcDw8//LB8cM+dOzfBIQSFLocS9PmqtBipppiHo4DByGDGjBm0du1apYnTY0ylbwI9boZUDX/pbIBkM52/SaHYgCUu7rzzTnr77bfpnnvukd+pGUjlwDY44L7D2jbojZs9e7ZKdQi6HCJ6x0xFTz+ILx82bFiSXgO9qdMCkI9Nl4loG2w6iKYYbMDJxJosy5cvp9dffz1BN5DKIZUMJBu0HtM02HTATNei8asc7O6HCQVwHDfeeCN96Utforvvvlu+ssCB2OAgMSZo2HmEFDiOq6++mqqqqujmm2+mb3zjGykdCAeJMUHDziOEaMeBNVt/8IMfqFRKciCofjJMf8FXX8hwOw7UOEzcDgSjmhmmv2DnESLSOQ6NdiBosPZqA2GKF90w2t/0Oc4DYy3yQRj61IO0AY7juuuukyNo3a8qqVi2bBl985vflCvpY2V0dMHlY7LkgXYuvAiDDYjzeOihh+iNN96guro6lRosuhwiuOBMQTeMLR2i37OxPWTIkCQ9jgWp8gDIx6bTkqkNNikkG6DHDT9+/Hj67Gc/m7HjALoGgghU2HPssccm5J+pDXwuCscG6HG9IJbDpgNmuha/yyFy+OGHkylQ2NIhyBjhq9inrKwsSe820NRpAcjHptOSzgZg00EKyQZ8x8UXX0w33HBDylcVL9yvMAgccudfSOXANmRmA4AdgwcPTtIFXQ7OtzH9Al5VPvrRj9LUqVNzchwasxeGYYKAnUc/ods4cq1xmLADYYKGnUc/oHtV0Djqh+PQmA4kLK3yTHHCziNg3N2x2TSOZorbgSBknR0Iky/YeQSI23H4WeMwMRtRGSYf5OQ88DTjJ1p2BOU4NNqBYBpDbgMpLtDbEQZKsAaD2o6xe/duWe210dvbK7tqESgyadIkEscrjQPmE8A++IG6a8gEsyBBl6oQ0tmA7/EKiAqbDZj/BKNjMcgtH68qqdCBZM888wwdf/zxKjXOQDsXhW4DRk6vWLFCzqmBOW7dBF4OwhEkkW5xG/EDotu2beNFn9LYgMWxQGVlZVScaLndH4gaCB4QUXHSVUqcgXIuismG5cuXF+6iT+I4KUxqUOO49NJLfe9VyRZ/u3HbqaGkmpq61EfJU5Y0Jl+Im19t9S/cYJonhPemCRMmyAmM+9NxaPxzIBVUF51FnTObSM8esmHGBCrf2Uw1ZSqBGRCw88gDcBzXXHMNVVdXh8JxaHx1IDM7afrKbjr8zzfRTy/rdBxHVxNVq8Z0SMMGosP4Cita+NT6DBwHelWuvPLKwBtHM8F0IDn3mo2to1nbR1LJNRfR/5kyQiZ1d5XTUvVKG22vpzm/+RNRCV9ixQqfWR/RjiOo7thccTuQvkwoVDGxnoYtmkSO6yAqHVtOrVNUzaNiDtHRfHkVM5H33nuPTEGDjC0dgkZAXBzYB3MLmHp0BwH8NXVaAPKx6bSkswHYdJD+sAFLI2BIfdgdh0Y7ECwihUhU928zxasc6L19wmH20ocOK5Gfn7j1X+n9RT3SifY8cSvRgffpgwF6PZjilw0Adhw8eDBJF3Q5RLBhCjK3pUO0gdjGU8vUuw00dVoA8rHptGRqg02CtgH7YfX6q666im4e30PVK7OdiLibmqY0ULv6lD1pjt/QYLVJO5CTTjpJTi7j9Xu90g99cLTwD70UEW8++Hzq6VGaVn6EnGviiHUf0PwXttPL4li8GAV1LmyCY0Ex2AA9YjHgoG06YKZr8bsccorzQPzC1q1bOc5D2XDllVdmEcexK9o4maL17eqjLyDP+mib+pREe320qmmX+pCMcCCecSCgkM6FjWKzYdmyZYUb58E44PUNtY0rrrgi/qri8ZRHumwLKJlOtCRKdWNVuiRec+heWS17KSTovViI1HZqEPoG1Z6A/NsXqrYFqY+D453vgbhqI9vvjfWEmPb51wvDBIG4b9VW/8LOI0eEd5YzgCU4Dg/kDf1opQquyzEeYk0HlQunE4220ZiakdQ60dmun9fqel3pps7ypep7otS2YA61whEd9Qq1bFY9ITsbiR5ojcVoaNiBMNnCziMH4DgQxzFt2rSMGkdLpzZTdGJrcm0gGyZXU2XM6dRTpay5lFP5ZJmgKKWKstZYDWPcPJVcchdVXVcptIKychojE5NhB8JkAzuPLIHjQHdsNrOcS8bWqRpBJbWKGzv2amKho1PVC7o6qcXZyhDxejOTYrEWbQuIHhumVBnCDoTJFHYeWaAdR9+6YxHebbZ5xCkdX00kXktkLWVJB1Wp9MwQNRGqpZGq5tEqaign/Fk4ooP1Sp8Z7ECYTChBy6vajqGX0LeBbhp05WBI/owZM2jt2rVK46C7edIt849hv17DgkE6GyBe35EPG/SrCiJH/Y/jQIPpvVS+uk64lvCgh/Nv3LiRLrzwQpWaSH+cC5OBZAPuu3Xr1slJnmbPnq1SHYIuhz4v+oQLCwb7TTobggA2nHHGGbLQMcgNY1X8DzmH4xgp6guNtGt1jdMuESK0A3n11VflfCB4HXKDGg4w091gn3R64LUP9Pp6sO0zkGxAYObvfvc7OafG3Llz5bUZNLocfK95AHgvTCai15EwybeXB37ZcPbZZ9OnP/3pfh9W35/AgWDimUceeYROOOGEhIsb5wFPM68JaACCmuQ6Hx7nAvpUE9TgptHXg+3GGkg27Nixg5588knpPObPn680DkHeF7LmIQoiK+eBsFQYiB8B41etWqU0DtDBAPwALwMOHTokfwAK0ot0NuBEYYlFG37a8Oabb9KYMWPkyTrxxBOVZmCBssSqdJjS0JyNrLW1Vf6trKyUf01eeuklevHFF2UN7vTTT1epiaTLA2AfL/1As+H888+Xryy1tbUq1SHI+0Lem3AeJuki6QZahOndaSIwixnxNIyKVzbPCNpMzgXy6O/rgW3w/76w112YBHzvfehqooasx78Ej7iI6POf/7wct9OXVzY88fobtsF/2HlkiJ8OpPuJZqLysDWNJgLHgW5pRNB+7WtfU6kME4edRxb44kA2NNDImhaaU9FA7XLsShM1YczKwvb4eBVIbMwK5gxVaVP01H+uNFfEqvv4VEFo6dCOo1CmF2D6B3YeWdJnBzK2kuonN9KuaB2VixpIyzxRC8GYlblCJ8erQHZR42aMWUE37jjhFZz0Xdc1070bEtOiwnMslq9A7dS6GfmKtJ2N1LEkPsdoNrDjYDKlz3EeTz/9tEr1l3Q2BIGXDWitXrJkiYz5yLoXBrWN+8upeW6FrClggJuMNsWoW8y+pYGDWUI0HeHm7vgPHH9qbWLY+oI24XwqYjpq2kXNU7N/LYLj+NznPkcf//jHqb6+XnYdgjCfiyBhGxy0DRF0y5iCbhxbOkT3D2N7yJAhSXrdBZQqD4B8bDotmdpgk3zbgDiXWbNmydiHbGsgaO8YMxFxpN3UubmKytVgt/ZHO6hxp6phNFURnXZBYsAYHIN+RZE1F1XzgChH1NBVQ83i81KanvWERNpxIKbl1ltvlY17+veG+VxA2AZHgrYBF18S6bqDeDIgxwbkn203rnAMYv+qaOPOtqh4fYnGpuhpr5f5QKomi30WOFP7tC1w0pxjZJLKw0jf2RgVLkelpZgYyAK6EMVrimd3bCGcC7YheBvYeaQgUxuydSBhAo7jiiuuSDkTWiGdCxtsg4PfNjj1HKZPFOooVHGRxF5VuHGUyRZ2Hj5RaA4EjgO9Kmgc/f73v69SGSZz2Hn4SKE4EO040B2LXhWGyQV2Hj4Tdgfidhx4VdHdsQyTLTk5Dx3FyNiBA7nrrrtC50DgODBWhQPAGD8oQcup2o6BwCdc+DZ6e3tlbAECRSZNmkTieKVxQHwA9tH9wTbwtIv1FXuQzgZ8j9fcCWGwAX3lcCC33357KIbzw3FgThIMcnOPVRkI54JtcPDdBtnnYpCuO+idd96Jbtu2jbtq09jw3nvvRe+8885+78YVF4RnHMdAORdsg/825PTaIo6TwqQGk7N85zvf6dc2EHEhyBoiv6owfsMNpnkGVcX+akSF40AcBzsOJh+w8wiIoB2IdhwVFRVyHA7D+A07jwAJyoHAcaA79rLLLqN58/SycQzjL+w8AibfDkQ7jvHjx8sJqtHuwjD5oERcbEktn3qWZxt6nYjt27fLG+Hxxx+XnzVoSMV7Prp7vGJBent7ZVemHkJsI50NEK/upLDbgJmp77jjDpo5c6bs9vKrG1e/qowdO5YWLlwoP/O5YBs0ftvAkwGlIN82/OxnP6Mf/vCHvjgQOIrPfvazcpDbTTfdpFL9YSCci0xgGxxiNghvlES6vmQeku+fDUuWLOlzHAjiOC6//PLoj370I5XiUEjlwDYUng3edRMmEFBL6EsbiDjRcg1dVFW//vWvq1SGyT/sPPoZNGjm2ogKx6Hn4zCXHmSYfMPOIyRk60C048AC3AgAGz16NJWWhnstGKa4YOcRIjJ1IHAc6I5Fr4puHB06dCgNGjRIbjNMELDzCBnpHIh2HIjjQHcsw/QXEfT7ZiPRqNOzi/7kPXv2JOmRrjF1WgDysekyEW2DTQcpdBvgQO68884kB6JfVS699FKaO3eu/AzM47XwuXCEbXDEbxv6HOexceNGmZHfDPQ+dfSe/PznP48Fkh133HGxsSoIOTcjR9988005j4PXXA59YaCfCw3b4KBtKEGfr0qL8cILL9CoUaPUp0TgKODBkMGMGTNo7dq1ShMHT0Rc/F5RatAjyg3iRTobIFi5zYtiseGWW26hNWvW0FlnnSXHqrgHubltWL9+vTyhp512mtI6FEs5sA0OYbIhonfMVHRYK7582LBhSXoN9KZOC0A+Nl0mom2w6SCaYrDhxhtvlA4BVUlEo7p1bhv0BeHWa/hcOLANDn7ZYHc/TKiora2lT33qU+oTw4QDdh4FwKFDh9QWw4QHdh5FwoUXXshBYkygsPMoEjhIjAkadh4FgG4IY5gwwfN5pCAMNnR1ddHDDz8sA/Lq6upUarDwuXBgGxy0DRF08ZmCbhhbOgSOA2B7yJAhSXocC1LlAZCPTaclUxts0icbjhgU20Z/ud4eJLYHHXVk7LO24fAjjxI6daxLHBtK6IhB8WNMAenKQesx+5hNB7AtHgIy/sat71M5uCTV8W4bbMI2OFKMNkRwUZoChS0dgowRc4B9ysrKkvRuA02dFoB8bDot6WwANh2kTzY88+/SaUAQmKW3//2Zp+nfp6yiPWo/acNhH6I37i8ROiMPIfjuyGH/l1ZOaaA/Gzotnja4BOD7jz766CSduxyee+45GYnq1hf8uXAJ2+BImGxwvo2JM7ZOOsdodBct+exMapPbUaobW0F1q2sooT/j/V464kPD1AeGGViw88iYdmqY0kTd2NzQIGsDgwdPpaUvXy61Ul/iLAAOmbyqm448wvH0EnFMSUk1NXWpzwxT4LDzyBrhJCqI/tjTQwcP/h86+e4WeuUokbyBqFLVUqI7G2nTd39Pu+gw6vlHr+M4Hq0UumaqKXNyYZhCh51HtnR1Usfkcjr78MOo5LAyum7RGXQKAkDFaw0tVDWPU2vpxQlHicKN0BFnLaBxFXOcY/MIB4kxQcPOI1vKymnMmk76+3vvU/T99+jvHS/S/wwj6l5ZTa0T4zWP0s3vUwlh/oQFst2kjcZRg6id5AsOEmOCJifnod/rByYVVNdO9EnZ5jGYbttZRWcfICotH0NzKlTNY2YnfT2yiZ4X7kNTMbdN/JdbmwdatxkmbJRgDQa1HQNdfpjFykZvb698uiJQZNKkSXLlODeYTwD74ILXXUMm7777rtSluinS2YDv8Zr4xi8b3n7nEB09CA0ayaAMEFfhlT/8Ru8779Fhgw6nkqQSdsjEhnfeeYdWrFgh51BYtGiRSnUIqhzCcC7YBodQ2SBugiTSLSwjLujotm3beNGngGxYvnx59Pbbb1cpcdw27N27Vy7G5abYysELtsEhaBtyem0Rx0lhgkGcbLXlzaZNm6i7W3YkM0wgcIMpwzA5wc6DYZicYOfBMExOsPMoEjhIjAmaCNb/MAUNdLZ0CLonEcuAfTDXhKlHdxDAX1OnBSAfm05LOhuATQcpJhtAT08Pvf3220k6tw3HHHOM7GJz64upHNgGR8JkQwQbpiBzWzpEG4jt/fv3J+ndBpo6LQD52HRaMrXBJsVkg9brk2bqgJe+mMqBbXAkTDbkFOeBeIKtW7dynEdANixbtixtnIeNYisHL9gGh6Bt4DaPAkCcJ7Xlzb59+2Q0KsMEBTuPkLJ371666KKLqKOjg4499lhZlcT2JZdcQq+88oraKw4HiTFBw84jpGBhaziLKVOm0K233kr3338/ffGLX5QTTnuNS2CYIGHnEVLgIDAQ7uSTT6a///3vcrZ6DEa87bbbuEuWCQXsPELMTTfdlDBHx4gRI2jatGnqE8P0LxF0u2QjuvEO7+BYS8TU6+4iYOq0AORj02Ui2gabDlIsNmBY9LXXXksf/vCH5b5wJqh1aL3bhtGjR0vnonUQPheOsA2O+G1Dnxd92rhxo8zIb8K0uI2fuCdRwrY+4Tagf/nll2UjKcr82WefTZrLQeeh87Xll+o7MqFYz0W2sA0O2oYS9PmqtBiYeGbUqFHqUyJwFPBgyGDGjBm0du1apYnT09Mjn5p6HQkT6PFOn6rhL50NEMxg7kV/24DvxXfI9S3EtnDSMqgOf/XNjq7VVBOz4Dj0rNx3333yu9AG8tZbbymtY4M4f/LVxstBIO8TTzxR9thosK9+Cg2EcwHYBgc/bSgRF1JWzgORjDBwx44dNH/+fFq1apXSOEAHA/ADvAw4dOiQ/AG4sbxIZwNumqOOss/y1d82IH39+vXU2tpKf/3rX+nPf/6zfPU4/vjj5dSFJ5xwgozL0EWvaw02kBfstJHueDgI/E581+bNm+nTn/607P4dO3YsXXbZZXIhqWI/F4BtcPDdBjgPk3RRbOILOMLUYsMzzzwTraurwx0d/frXvx695557ohs2bIi+/vrrao/+AzONCScW/eUvfxmdPn26tPH73/9+9LHHHivKc+GGbXDw2wZ73YXJCrT7/Ou//ivV19fTRz7yEdmQ/Itf/IK+9rWvyfaKYcP6f1U5zK6OWsc///M/089//nP5+gPbYOdnPvMZeuKJJ9SeDJMZ7Dz6AKp2//Ef/0EXX3wxXXHFFfSb3/yGbrjhBvlaEnbwyjJ58mT6r//6L5o1axYtXryY5syZQ2+++abag2FSw84jR55//nnpPEQVTzaCVldXK03h8dnPfpYefPBB6fSGDBlCTz31lNIwjDfsPHLgf//3f+XkO//93/9N8+bN82ygKjRmzpxJjzzyiGxQfeihh1Qqw9jpc5wHxlrkg7D2qaNt4KqrrpJ/0WNRjKCHCM5x9erVdPXVV4f2XAQN2+CgbYigW8YUdOPY0iG6fxjbqOKaet0FlCoPgHxsOi2Z2mCTfNnw0ksvFb3jABdccIHs2sWgPASmoWvPXQ5u6a9z4Ra2wZGgbeCu2hSYNnz5y1+OrlmzRn0qftCNK66lqKiJqJRk+utcuGEbHIK2wXFVTFruuusuOv300+Ww+IECgsowihfLXTKMCTuPDMDEPN/61rekDDS+/e1v009+8pOkNYkZhp1HBrS0tMgJeU499VSVMnBAOD2Cypqbm1UKwziw88iAdevW0ec+9zn1KT+0LyyRY1TcUr0ys2kFu1dWU8MG9SEPoMcFZcAwbth5KDDNHwYWmbz++uv06quvytDu/NFNnZurqHGns4C4luapmc0Y1ineKMrL1Ic8cNppp8meNQTGMYwmJ+ehn4zFAkYb/su//Iuc8g8NhD09PUrj9Gmfc8456lOe6GqlZqqmyiQH0E4NrppISUmDSAHd1DRFpS1sEo5nTF6dB0AZbNu2TX1iGOEH0O2itmPs3r07adIZTW9vr3wq4qZCdKU5JB9An8q5QI++ZPz14t1336UjjzxSfUoEeWO4ebrvyNQG9FtjjMfs2bPlvBeY/wLh5rW1tTLiEqu1LViwQB2ZBzY0UEnFHPVBMbmRdi0hmn6qcCs7m6mmDA5jOtGSZiq/v4QWn7nLqZng2CXltGt1DeVzZtOlS5fKyNof//jHKsUB1wOcr9e5gg776PgAGzjXsdgBD9Jdk2xD8DbkNJ8Hblzsc95558nBVAieAvpmxJMbgUX6JneD8SAHDx6UxkHwg0xwA2sbDhw4oFId8MNQABA05pmvGrnYgP0RMYdeBT3ZDqrpmLwHU/+hRoLBY/kCbRbTaWnyawocw6OVFJ1bIT6gFtJKldFKapV/6wipifvkD3TX4hXu+9//vkpxGJDzWFgYiDbk5Dy0gRjbYQKdNhBG2NA3LvbxAlVkDG+3gfzxPXAeNnKxAU7qe9/7XmxUKWI6MPL0mmuukY7khz/8oUzPB2gsbZ0YpbqxKkGR4FS6mqh6pqgBrC6ne2POA7WRkdR8naqF5BG0CWFSIThTN3zjOgxIG+A8TPoaxfbOO+/0eyRdtjb827/9m4ymFE4jOmnSpOj69eujr7zySvT3v/99VLzOqL3yQVu0XnwvvtstVU27om0LKFrfrnZrr4/Sgja5uaupyrVvVbRxp0zOK6JWFr3vvvvUpziZnAvo+/t6YBv8tyEvvS3ma0J/kI0Nr732mnyXx5wcqJ7/7ne/o8svv1x64VNOOSX2WpYfKqhOVP7EuUgQ1CQq5rpqI2PrYq8mpVObXfuiPUQm5xWUwUCMc2G84a5awUknnSQbAx999FH65Cc/qVId0K6DRmE0mg5kMNL2/PPPV58Yhp1HDNNpaPBu+J3vfIcef/xxlTLw2LBhg2w05pXqGDeH1dXV3YIqvlswBycaCc10LaguA5sOkk4PAdjPpoOEyQbsg5m20Hg6ELnzzjvlVItYWMpWTkGeC5sOwjY4EqQNOU0GFARhswHdx3itmTBhgvw8UNATA6EXCq3w/QVfkw6hskF4mCS4VdnBbQPmthg3blz0/fffVykDg6985StRUfNQn5IZqNeDyUC0gds8MgRzW2Ci4FtuuUWlFD933HGHrHFMmjRJpTBMHHYeWYBo2l27dtFPf/pTlVK8oMsaEyL/8pe/VCkMkwg7jyxZsmQJ/exnP5Oh7MXKPffcQzfeeKNcZPuYY45RqQyTCDuPLEHDKRoR0X2JJzPGvxQLaEnHa9mf/vQnWcPioDAmFew8cgBjapqammR3FZZxXLt2rdIULk8++SSNHz9e9qjgVYVjOph0RDBYJhuJqn5imw6Cp5fGpocA5GPTZSJhsQFtILjpsCYt5vp85plnZL6FxHPPPUc333yzdBxz586Vv8n2e72ErwdHBqINHOeRgkxswJB/PK0bGxtlMBXC2TFl4ac+9SkaMWKE2itcYELn9evX0x/+8AfZvoE2nG9+85tyRKa+AN3w9eDANjhoG0rQ56vSYqQa9qu9jh7KbqOnp0feUJhbwwb0CPv2GhYMCtUGPUYGC2BXVVXJqEzkgQF2WAsWw6W9bPIbOAIM7oOzwFSKL774Im3ZskX+LixaNXHiRLmIFZ5IqSZO4uvBgW1w0Db0aT4PGzAeBuAHeBkwUOZO2LRpk5z3s6urS968uInxvccdd5ycG2Pjxo1y1jLMEeoFZm6HE7KxY8cOOUEP5leFLbgg3BcFwohFzZLOPfdcOvvss+UcJdj+6Ec/qvbgeSw0bINDVjbAeZhwJJ1DX20QJ6LfbXj33Xf73Qbo2Ybis8Fed2F8QZSv2uo/8LRhmHzAzoNhmJxg51EkoA3lnXfeUZ8YJv+w8ygS0Djb3Z3ZCnMM4wcc55GCQrIBIeXotSkr839CUz4XDmyDg7Yhgm4ZU9CNY0uH6K5Amw6iu4BS5QGQj02nhW1wJFMbEKdh7hu0DTZhGxwpRhu4qzYFhWQDlooQTwS5rRmI5WCDbXDw2wbHVTEFD6YK5MFsTJCw8ygSMLp30KBB6hPD5B92HgzD5AQ7D4ZhcoKdR5HAQWJM0LDzKBI4SIwJmhJ0u6jtGLt376bhw4erT4n09vbKwVZHHnmkSkkEOuyj+4NtvPvuu/G+Yg/YBodMbRDnUTaaYoi/ZiCWgw22wcF3G2SHrQH3ZzsUkg0c58E2BG0Dv7YwDJMDRP8P/KYMgWp5vy8AAAAASUVORK5CYII=;" vertex="1" parent="1">
          <mxGeometry x="1060" y="270" width="271" height="529" as="geometry" />
        </mxCell>
        <mxCell id="T8XyQ3JomlZQ3bvedapc-14" style="edgeStyle=orthogonalEdgeStyle;rounded=0;orthogonalLoop=1;jettySize=auto;html=1;entryX=0.5;entryY=0;entryDx=0;entryDy=0;entryPerimeter=0;" edge="1" parent="1" target="XtyGe26G-kog1QyAXvnk-16">
          <mxGeometry relative="1" as="geometry">
            <mxPoint x="440" y="110" as="sourcePoint" />
            <Array as="points">
              <mxPoint x="420" y="130" />
              <mxPoint x="100" y="130" />
            </Array>
          </mxGeometry>
        </mxCell>
      </root>
    </mxGraphModel>
  </diagram>
</mxfile>
